<mxfile host="app.diagrams.net" modified="2021-02-27T03:17:37.890Z" agent="5.0 (Macintosh; Intel Mac OS X 10_13_1) AppleWebKit/537.36 (KHTML, like Gecko) Chrome/88.0.4324.192 Safari/537.36" etag="1-vbgfGBwZ-jHw_gxw5j" version="14.0.1" type="github">
  <diagram id="mqElQO4Gb72HrLTUOcsn" name="第 1 页">
    <mxGraphModel dx="1426" dy="891" grid="1" gridSize="10" guides="1" tooltips="1" connect="1" arrows="1" fold="1" page="1" pageScale="1" pageWidth="827" pageHeight="1169" background="#00FF00" math="0" shadow="0">
      <root>
        <mxCell id="0" />
        <mxCell id="1" parent="0" />
        <mxCell id="NIX0h1YYxs0aXMcXGmLt-5" value="Actor" style="shape=umlActor;verticalLabelPosition=bottom;verticalAlign=top;html=1;outlineConnect=0;" vertex="1" parent="1">
          <mxGeometry x="220" y="700" width="30" height="60" as="geometry" />
        </mxCell>
        <mxCell id="NIX0h1YYxs0aXMcXGmLt-6" value="Actor" style="shape=umlActor;verticalLabelPosition=bottom;verticalAlign=top;html=1;outlineConnect=0;" vertex="1" parent="1">
          <mxGeometry x="460" y="740" width="30" height="60" as="geometry" />
        </mxCell>
        <mxCell id="NIX0h1YYxs0aXMcXGmLt-8" value="Actor" style="shape=umlActor;verticalLabelPosition=bottom;verticalAlign=top;html=1;outlineConnect=0;" vertex="1" parent="1">
          <mxGeometry x="540" y="410" width="30" height="60" as="geometry" />
        </mxCell>
        <mxCell id="NIX0h1YYxs0aXMcXGmLt-9" value="Actor" style="shape=umlActor;verticalLabelPosition=bottom;verticalAlign=top;html=1;outlineConnect=0;" vertex="1" parent="1">
          <mxGeometry x="480" y="470" width="30" height="60" as="geometry" />
        </mxCell>
        <mxCell id="NIX0h1YYxs0aXMcXGmLt-10" value="Actor" style="shape=umlActor;verticalLabelPosition=bottom;verticalAlign=top;html=1;outlineConnect=0;" vertex="1" parent="1">
          <mxGeometry x="650" y="620" width="30" height="60" as="geometry" />
        </mxCell>
        <mxCell id="NIX0h1YYxs0aXMcXGmLt-11" value="Actor" style="shape=umlActor;verticalLabelPosition=bottom;verticalAlign=top;html=1;outlineConnect=0;" vertex="1" parent="1">
          <mxGeometry x="640" y="525" width="30" height="60" as="geometry" />
        </mxCell>
        <mxCell id="NIX0h1YYxs0aXMcXGmLt-12" value="Actor" style="shape=umlActor;verticalLabelPosition=bottom;verticalAlign=top;html=1;outlineConnect=0;" vertex="1" parent="1">
          <mxGeometry x="480" y="660" width="30" height="60" as="geometry" />
        </mxCell>
        <mxCell id="NIX0h1YYxs0aXMcXGmLt-13" value="Actor" style="shape=umlActor;verticalLabelPosition=bottom;verticalAlign=top;html=1;outlineConnect=0;" vertex="1" parent="1">
          <mxGeometry x="520" y="584.5" width="30" height="60" as="geometry" />
        </mxCell>
        <mxCell id="NIX0h1YYxs0aXMcXGmLt-14" value="Actor" style="shape=umlActor;verticalLabelPosition=bottom;verticalAlign=top;html=1;outlineConnect=0;" vertex="1" parent="1">
          <mxGeometry x="130" y="750" width="30" height="60" as="geometry" />
        </mxCell>
        <mxCell id="NIX0h1YYxs0aXMcXGmLt-15" value="Actor" style="shape=umlActor;verticalLabelPosition=bottom;verticalAlign=top;html=1;outlineConnect=0;" vertex="1" parent="1">
          <mxGeometry x="300" y="780" width="30" height="60" as="geometry" />
        </mxCell>
        <mxCell id="NIX0h1YYxs0aXMcXGmLt-16" value="Actor" style="shape=umlActor;verticalLabelPosition=bottom;verticalAlign=top;html=1;outlineConnect=0;" vertex="1" parent="1">
          <mxGeometry x="65" y="400" width="30" height="60" as="geometry" />
        </mxCell>
        <mxCell id="NIX0h1YYxs0aXMcXGmLt-17" value="Actor" style="shape=umlActor;verticalLabelPosition=bottom;verticalAlign=top;html=1;outlineConnect=0;" vertex="1" parent="1">
          <mxGeometry x="570" y="440" width="30" height="60" as="geometry" />
        </mxCell>
        <mxCell id="NIX0h1YYxs0aXMcXGmLt-18" value="Actor" style="shape=umlActor;verticalLabelPosition=bottom;verticalAlign=top;html=1;outlineConnect=0;" vertex="1" parent="1">
          <mxGeometry x="80" y="450" height="10" as="geometry" />
        </mxCell>
        <mxCell id="NIX0h1YYxs0aXMcXGmLt-19" value="Actor" style="shape=umlActor;verticalLabelPosition=bottom;verticalAlign=top;html=1;outlineConnect=0;" vertex="1" parent="1">
          <mxGeometry x="100" y="250" width="30" height="60" as="geometry" />
        </mxCell>
        <mxCell id="NIX0h1YYxs0aXMcXGmLt-20" value="Actor" style="shape=umlActor;verticalLabelPosition=bottom;verticalAlign=top;html=1;outlineConnect=0;" vertex="1" parent="1">
          <mxGeometry x="350" y="220" width="30" height="60" as="geometry" />
        </mxCell>
        <mxCell id="NIX0h1YYxs0aXMcXGmLt-23" value="Actor" style="shape=umlActor;verticalLabelPosition=bottom;verticalAlign=top;html=1;outlineConnect=0;" vertex="1" parent="1">
          <mxGeometry x="520" y="780" width="30" height="60" as="geometry" />
        </mxCell>
        <mxCell id="NIX0h1YYxs0aXMcXGmLt-24" value="Actor" style="shape=umlActor;verticalLabelPosition=bottom;verticalAlign=top;html=1;outlineConnect=0;" vertex="1" parent="1">
          <mxGeometry x="400" y="740" width="30" height="60" as="geometry" />
        </mxCell>
        <mxCell id="NIX0h1YYxs0aXMcXGmLt-25" value="Actor" style="shape=umlActor;verticalLabelPosition=bottom;verticalAlign=top;html=1;outlineConnect=0;" vertex="1" parent="1">
          <mxGeometry x="190" y="585" width="30" height="60" as="geometry" />
        </mxCell>
        <mxCell id="NIX0h1YYxs0aXMcXGmLt-26" value="Actor" style="shape=umlActor;verticalLabelPosition=bottom;verticalAlign=top;html=1;outlineConnect=0;" vertex="1" parent="1">
          <mxGeometry x="360" y="500" width="30" height="60" as="geometry" />
        </mxCell>
        <mxCell id="NIX0h1YYxs0aXMcXGmLt-27" value="Actor" style="shape=umlActor;verticalLabelPosition=bottom;verticalAlign=top;html=1;outlineConnect=0;" vertex="1" parent="1">
          <mxGeometry x="110" y="490" width="30" height="60" as="geometry" />
        </mxCell>
        <mxCell id="NIX0h1YYxs0aXMcXGmLt-28" value="Actor" style="shape=umlActor;verticalLabelPosition=bottom;verticalAlign=top;html=1;outlineConnect=0;" vertex="1" parent="1">
          <mxGeometry x="270" y="500" width="30" height="60" as="geometry" />
        </mxCell>
        <mxCell id="NIX0h1YYxs0aXMcXGmLt-29" value="Actor" style="shape=umlActor;verticalLabelPosition=bottom;verticalAlign=top;html=1;outlineConnect=0;" vertex="1" parent="1">
          <mxGeometry x="640" y="280" width="30" height="60" as="geometry" />
        </mxCell>
        <mxCell id="NIX0h1YYxs0aXMcXGmLt-30" value="Actor" style="shape=umlActor;verticalLabelPosition=bottom;verticalAlign=top;html=1;outlineConnect=0;" vertex="1" parent="1">
          <mxGeometry x="560" y="450" width="30" height="60" as="geometry" />
        </mxCell>
        <mxCell id="NIX0h1YYxs0aXMcXGmLt-31" value="Actor" style="shape=umlActor;verticalLabelPosition=bottom;verticalAlign=top;html=1;outlineConnect=0;" vertex="1" parent="1">
          <mxGeometry x="290" y="320" width="30" height="60" as="geometry" />
        </mxCell>
        <mxCell id="NIX0h1YYxs0aXMcXGmLt-32" value="Actor" style="shape=umlActor;verticalLabelPosition=bottom;verticalAlign=top;html=1;outlineConnect=0;" vertex="1" parent="1">
          <mxGeometry x="220" y="420" width="30" height="60" as="geometry" />
        </mxCell>
        <mxCell id="NIX0h1YYxs0aXMcXGmLt-33" value="Actor" style="shape=umlActor;verticalLabelPosition=bottom;verticalAlign=top;html=1;outlineConnect=0;" vertex="1" parent="1">
          <mxGeometry x="510" y="680" width="30" height="60" as="geometry" />
        </mxCell>
        <mxCell id="NIX0h1YYxs0aXMcXGmLt-34" value="Actor" style="shape=umlActor;verticalLabelPosition=bottom;verticalAlign=top;html=1;outlineConnect=0;" vertex="1" parent="1">
          <mxGeometry x="414" y="630" width="30" height="60" as="geometry" />
        </mxCell>
        <mxCell id="NIX0h1YYxs0aXMcXGmLt-35" value="Actor" style="shape=umlActor;verticalLabelPosition=bottom;verticalAlign=top;html=1;outlineConnect=0;" vertex="1" parent="1">
          <mxGeometry x="414" y="350" width="30" height="60" as="geometry" />
        </mxCell>
        <mxCell id="NIX0h1YYxs0aXMcXGmLt-36" value="Actor" style="shape=umlActor;verticalLabelPosition=bottom;verticalAlign=top;html=1;outlineConnect=0;" vertex="1" parent="1">
          <mxGeometry x="600" y="670" width="30" height="60" as="geometry" />
        </mxCell>
        <mxCell id="NIX0h1YYxs0aXMcXGmLt-37" value="Actor" style="shape=umlActor;verticalLabelPosition=bottom;verticalAlign=top;html=1;outlineConnect=0;" vertex="1" parent="1">
          <mxGeometry x="430" y="530" width="30" height="60" as="geometry" />
        </mxCell>
        <mxCell id="NIX0h1YYxs0aXMcXGmLt-38" value="Actor" style="shape=umlActor;verticalLabelPosition=bottom;verticalAlign=top;html=1;outlineConnect=0;" vertex="1" parent="1">
          <mxGeometry x="384" y="690" width="30" height="60" as="geometry" />
        </mxCell>
        <mxCell id="NIX0h1YYxs0aXMcXGmLt-39" value="Actor" style="shape=umlActor;verticalLabelPosition=bottom;verticalAlign=top;html=1;outlineConnect=0;" vertex="1" parent="1">
          <mxGeometry x="560" y="510" width="30" height="60" as="geometry" />
        </mxCell>
        <mxCell id="NIX0h1YYxs0aXMcXGmLt-40" value="Actor" style="shape=umlActor;verticalLabelPosition=bottom;verticalAlign=top;html=1;outlineConnect=0;" vertex="1" parent="1">
          <mxGeometry x="310" y="600" width="30" height="60" as="geometry" />
        </mxCell>
        <mxCell id="NIX0h1YYxs0aXMcXGmLt-41" value="Actor" style="shape=umlActor;verticalLabelPosition=bottom;verticalAlign=top;html=1;outlineConnect=0;" vertex="1" parent="1">
          <mxGeometry x="340" y="430" width="30" height="60" as="geometry" />
        </mxCell>
        <mxCell id="NIX0h1YYxs0aXMcXGmLt-43" value="Actor" style="shape=umlActor;verticalLabelPosition=bottom;verticalAlign=top;html=1;outlineConnect=0;" vertex="1" parent="1">
          <mxGeometry x="560" y="260" width="30" height="60" as="geometry" />
        </mxCell>
        <mxCell id="NIX0h1YYxs0aXMcXGmLt-47" value="Actor" style="shape=umlActor;verticalLabelPosition=bottom;verticalAlign=top;html=1;outlineConnect=0;" vertex="1" parent="1">
          <mxGeometry x="470" y="380" width="30" height="60" as="geometry" />
        </mxCell>
        <mxCell id="NIX0h1YYxs0aXMcXGmLt-54" value="" style="verticalLabelPosition=bottom;verticalAlign=top;html=1;shape=mxgraph.basic.heart;strokeColor=#FF3333;fillColor=#FF0000;" vertex="1" parent="1">
          <mxGeometry x="170" y="140" width="120" height="80" as="geometry" />
        </mxCell>
        <mxCell id="NIX0h1YYxs0aXMcXGmLt-57" value="" style="verticalLabelPosition=bottom;verticalAlign=top;html=1;shape=mxgraph.basic.heart;strokeColor=#FF3333;fillColor=#FF0000;" vertex="1" parent="1">
          <mxGeometry x="470" y="840" width="100" height="100" as="geometry" />
        </mxCell>
        <mxCell id="NIX0h1YYxs0aXMcXGmLt-58" value="" style="verticalLabelPosition=bottom;verticalAlign=top;html=1;shape=mxgraph.basic.heart;strokeColor=#FF3333;fillColor=#FF0000;" vertex="1" parent="1">
          <mxGeometry x="265" y="830" width="100" height="100" as="geometry" />
        </mxCell>
        <mxCell id="NIX0h1YYxs0aXMcXGmLt-59" value="" style="verticalLabelPosition=bottom;verticalAlign=top;html=1;shape=mxgraph.basic.heart;strokeColor=#FF3333;fillColor=#FF0000;" vertex="1" parent="1">
          <mxGeometry x="40" y="790" width="100" height="100" as="geometry" />
        </mxCell>
        <mxCell id="NIX0h1YYxs0aXMcXGmLt-60" value="" style="verticalLabelPosition=bottom;verticalAlign=top;html=1;shape=mxgraph.basic.heart;strokeColor=#FF3333;fillColor=#FF0000;" vertex="1" parent="1">
          <mxGeometry x="95" y="840" width="100" height="100" as="geometry" />
        </mxCell>
        <mxCell id="NIX0h1YYxs0aXMcXGmLt-61" value="" style="verticalLabelPosition=bottom;verticalAlign=top;html=1;shape=mxgraph.basic.heart;strokeColor=#FF3333;fillColor=#FF0000;" vertex="1" parent="1">
          <mxGeometry x="475" y="210" width="100" height="100" as="geometry" />
        </mxCell>
        <mxCell id="NIX0h1YYxs0aXMcXGmLt-62" value="" style="verticalLabelPosition=bottom;verticalAlign=top;html=1;shape=mxgraph.basic.heart;strokeColor=#FF3333;fillColor=#FF0000;" vertex="1" parent="1">
          <mxGeometry x="230" y="140" width="120" height="160" as="geometry" />
        </mxCell>
        <mxCell id="NIX0h1YYxs0aXMcXGmLt-63" value="" style="verticalLabelPosition=bottom;verticalAlign=top;html=1;shape=mxgraph.basic.heart;strokeColor=#FF3333;fillColor=#FF0000;" vertex="1" parent="1">
          <mxGeometry x="65" y="480" width="100" height="100" as="geometry" />
        </mxCell>
        <mxCell id="NIX0h1YYxs0aXMcXGmLt-64" value="" style="verticalLabelPosition=bottom;verticalAlign=top;html=1;shape=mxgraph.basic.heart;strokeColor=#FF3333;fillColor=#FF0000;" vertex="1" parent="1">
          <mxGeometry x="20" y="740" width="100" height="100" as="geometry" />
        </mxCell>
        <mxCell id="NIX0h1YYxs0aXMcXGmLt-65" value="" style="verticalLabelPosition=bottom;verticalAlign=top;html=1;shape=mxgraph.basic.heart;strokeColor=#FF3333;fillColor=#FF0000;" vertex="1" parent="1">
          <mxGeometry x="40" y="600" width="100" height="100" as="geometry" />
        </mxCell>
        <mxCell id="NIX0h1YYxs0aXMcXGmLt-68" value="" style="verticalLabelPosition=bottom;verticalAlign=top;html=1;shape=mxgraph.basic.heart;strokeColor=#FF3333;fillColor=#FF0000;" vertex="1" parent="1">
          <mxGeometry x="80" y="240" width="100" height="100" as="geometry" />
        </mxCell>
        <mxCell id="NIX0h1YYxs0aXMcXGmLt-69" value="" style="verticalLabelPosition=bottom;verticalAlign=top;html=1;shape=mxgraph.basic.heart;strokeColor=#FF3333;fillColor=#FF0000;" vertex="1" parent="1">
          <mxGeometry x="710" y="300" width="100" height="100" as="geometry" />
        </mxCell>
        <mxCell id="NIX0h1YYxs0aXMcXGmLt-70" value="" style="verticalLabelPosition=bottom;verticalAlign=top;html=1;shape=mxgraph.basic.heart;strokeColor=#FF3333;fillColor=#FF0000;" vertex="1" parent="1">
          <mxGeometry x="395" y="210" width="100" height="100" as="geometry" />
        </mxCell>
        <mxCell id="NIX0h1YYxs0aXMcXGmLt-71" value="" style="verticalLabelPosition=bottom;verticalAlign=top;html=1;shape=mxgraph.basic.heart;strokeColor=#FF3333;fillColor=#FF0000;" vertex="1" parent="1">
          <mxGeometry x="180" y="840" width="100" height="100" as="geometry" />
        </mxCell>
        <mxCell id="NIX0h1YYxs0aXMcXGmLt-72" value="" style="verticalLabelPosition=bottom;verticalAlign=top;html=1;shape=mxgraph.basic.heart;strokeColor=#FF3333;fillColor=#FF0000;" vertex="1" parent="1">
          <mxGeometry x="520" y="160" width="100" height="100" as="geometry" />
        </mxCell>
        <mxCell id="NIX0h1YYxs0aXMcXGmLt-73" value="" style="verticalLabelPosition=bottom;verticalAlign=top;html=1;shape=mxgraph.basic.heart;strokeColor=#FF3333;fillColor=#FF0000;" vertex="1" parent="1">
          <mxGeometry x="550" y="840" width="100" height="100" as="geometry" />
        </mxCell>
        <mxCell id="NIX0h1YYxs0aXMcXGmLt-74" value="" style="verticalLabelPosition=bottom;verticalAlign=top;html=1;shape=mxgraph.basic.heart;strokeColor=#FF3333;fillColor=#FF0000;" vertex="1" parent="1">
          <mxGeometry x="680" y="690" width="100" height="100" as="geometry" />
        </mxCell>
        <mxCell id="NIX0h1YYxs0aXMcXGmLt-75" value="" style="verticalLabelPosition=bottom;verticalAlign=top;html=1;shape=mxgraph.basic.heart;strokeColor=#FF3333;fillColor=#FF0000;" vertex="1" parent="1">
          <mxGeometry x="700" y="620" width="100" height="100" as="geometry" />
        </mxCell>
        <mxCell id="NIX0h1YYxs0aXMcXGmLt-76" value="" style="verticalLabelPosition=bottom;verticalAlign=top;html=1;shape=mxgraph.basic.heart;strokeColor=#FF3333;fillColor=#FF0000;" vertex="1" parent="1">
          <mxGeometry x="720" y="405" width="100" height="100" as="geometry" />
        </mxCell>
        <mxCell id="NIX0h1YYxs0aXMcXGmLt-77" value="" style="verticalLabelPosition=bottom;verticalAlign=top;html=1;shape=mxgraph.basic.heart;strokeColor=#FF3333;fillColor=#FF0000;" vertex="1" parent="1">
          <mxGeometry x="640" y="160" width="100" height="100" as="geometry" />
        </mxCell>
        <mxCell id="NIX0h1YYxs0aXMcXGmLt-78" value="" style="verticalLabelPosition=bottom;verticalAlign=top;html=1;shape=mxgraph.basic.heart;strokeColor=#FF3333;fillColor=#FF0000;" vertex="1" parent="1">
          <mxGeometry x="60" y="300" width="100" height="100" as="geometry" />
        </mxCell>
        <mxCell id="NIX0h1YYxs0aXMcXGmLt-79" value="" style="verticalLabelPosition=bottom;verticalAlign=top;html=1;shape=mxgraph.basic.heart;strokeColor=#FF3333;fillColor=#FF0000;" vertex="1" parent="1">
          <mxGeometry x="50" y="650" width="100" height="100" as="geometry" />
        </mxCell>
        <mxCell id="NIX0h1YYxs0aXMcXGmLt-81" value="" style="verticalLabelPosition=bottom;verticalAlign=top;html=1;shape=mxgraph.basic.heart;strokeColor=#FF3333;fillColor=#FF0000;" vertex="1" parent="1">
          <mxGeometry x="305" y="210" width="100" height="100" as="geometry" />
        </mxCell>
        <mxCell id="NIX0h1YYxs0aXMcXGmLt-82" value="" style="verticalLabelPosition=bottom;verticalAlign=top;html=1;shape=mxgraph.basic.heart;strokeColor=#FF3333;fillColor=#FF0000;" vertex="1" parent="1">
          <mxGeometry x="130" y="190" width="100" height="100" as="geometry" />
        </mxCell>
        <mxCell id="NIX0h1YYxs0aXMcXGmLt-83" value="" style="verticalLabelPosition=bottom;verticalAlign=top;html=1;shape=mxgraph.basic.heart;strokeColor=#FF3333;fillColor=#FF0000;" vertex="1" parent="1">
          <mxGeometry x="350" y="830" width="100" height="100" as="geometry" />
        </mxCell>
        <mxCell id="NIX0h1YYxs0aXMcXGmLt-84" value="" style="verticalLabelPosition=bottom;verticalAlign=top;html=1;shape=mxgraph.basic.heart;strokeColor=#FF3333;fillColor=#FF0000;" vertex="1" parent="1">
          <mxGeometry x="30" y="380" width="100" height="100" as="geometry" />
        </mxCell>
        <mxCell id="NIX0h1YYxs0aXMcXGmLt-85" value="" style="verticalLabelPosition=bottom;verticalAlign=top;html=1;shape=mxgraph.basic.heart;strokeColor=#FF3333;fillColor=#FF0000;" vertex="1" parent="1">
          <mxGeometry x="650" y="790" width="100" height="100" as="geometry" />
        </mxCell>
        <mxCell id="NIX0h1YYxs0aXMcXGmLt-86" value="" style="verticalLabelPosition=bottom;verticalAlign=top;html=1;shape=mxgraph.basic.heart;strokeColor=#FF3333;fillColor=#FF0000;" vertex="1" parent="1">
          <mxGeometry x="720" y="544.5" width="100" height="100" as="geometry" />
        </mxCell>
        <mxCell id="NIX0h1YYxs0aXMcXGmLt-87" value="" style="verticalLabelPosition=bottom;verticalAlign=top;html=1;shape=mxgraph.basic.heart;strokeColor=#FF3333;fillColor=#FF0000;" vertex="1" parent="1">
          <mxGeometry x="720" y="470" width="100" height="100" as="geometry" />
        </mxCell>
        <mxCell id="NIX0h1YYxs0aXMcXGmLt-88" value="" style="verticalLabelPosition=bottom;verticalAlign=top;html=1;shape=mxgraph.basic.heart;strokeColor=#FF3333;fillColor=#FF0000;" vertex="1" parent="1">
          <mxGeometry x="580" y="150" width="100" height="100" as="geometry" />
        </mxCell>
        <mxCell id="NIX0h1YYxs0aXMcXGmLt-89" value="" style="verticalLabelPosition=bottom;verticalAlign=top;html=1;shape=mxgraph.basic.heart;strokeColor=#FF3333;fillColor=#FF0000;" vertex="1" parent="1">
          <mxGeometry x="690" y="230" width="100" height="100" as="geometry" />
        </mxCell>
        <mxCell id="NIX0h1YYxs0aXMcXGmLt-90" value="" style="verticalLabelPosition=bottom;verticalAlign=top;html=1;shape=mxgraph.basic.heart;strokeColor=#FF3333;fillColor=#FF0000;" vertex="1" parent="1">
          <mxGeometry x="30" y="535" width="100" height="100" as="geometry" />
        </mxCell>
        <mxCell id="NIX0h1YYxs0aXMcXGmLt-91" value="" style="verticalLabelPosition=bottom;verticalAlign=top;html=1;shape=mxgraph.basic.heart;strokeColor=#FF3333;fillColor=#FF0000;" vertex="1" parent="1">
          <mxGeometry x="710" y="340" width="100" height="100" as="geometry" />
        </mxCell>
        <mxCell id="NIX0h1YYxs0aXMcXGmLt-92" value="" style="verticalLabelPosition=bottom;verticalAlign=top;html=1;shape=mxgraph.basic.heart;strokeColor=#FF3333;fillColor=#FF0000;" vertex="1" parent="1">
          <mxGeometry x="630" y="790" width="100" height="100" as="geometry" />
        </mxCell>
        <mxCell id="NIX0h1YYxs0aXMcXGmLt-93" value="" style="verticalLabelPosition=bottom;verticalAlign=top;html=1;shape=mxgraph.basic.heart;strokeColor=#FF3333;fillColor=#FF0000;" vertex="1" parent="1">
          <mxGeometry x="410" y="810" width="100" height="100" as="geometry" />
        </mxCell>
        <mxCell id="NIX0h1YYxs0aXMcXGmLt-94" value="" style="verticalLabelPosition=bottom;verticalAlign=top;html=1;shape=mxgraph.basic.heart;strokeColor=#FF3333;fillColor=#FF0000;" vertex="1" parent="1">
          <mxGeometry x="60" y="430" width="100" height="100" as="geometry" />
        </mxCell>
        <mxCell id="NIX0h1YYxs0aXMcXGmLt-95" value="" style="verticalLabelPosition=bottom;verticalAlign=top;html=1;shape=mxgraph.basic.heart;strokeColor=#FF3333;fillColor=#FF0000;" vertex="1" parent="1">
          <mxGeometry x="30" y="690" width="100" height="100" as="geometry" />
        </mxCell>
        <mxCell id="NIX0h1YYxs0aXMcXGmLt-96" value="" style="verticalLabelPosition=bottom;verticalAlign=top;html=1;shape=mxgraph.basic.heart;strokeColor=#FF3333;fillColor=#FF0000;" vertex="1" parent="1">
          <mxGeometry x="650" y="760" width="100" height="100" as="geometry" />
        </mxCell>
        <mxCell id="NIX0h1YYxs0aXMcXGmLt-97" value="" style="verticalLabelPosition=bottom;verticalAlign=top;html=1;shape=mxgraph.basic.heart;strokeColor=#FF3333;fillColor=#FF0000;" vertex="1" parent="1">
          <mxGeometry x="620" y="820" width="100" height="100" as="geometry" />
        </mxCell>
        <mxCell id="NIX0h1YYxs0aXMcXGmLt-102" value="" style="verticalLabelPosition=bottom;verticalAlign=top;html=1;shape=mxgraph.basic.heart;strokeColor=#FF3333;fillColor=#FF0000;" vertex="1" parent="1">
          <mxGeometry x="180" y="820" width="100" height="100" as="geometry" />
        </mxCell>
        <mxCell id="NIX0h1YYxs0aXMcXGmLt-103" value="" style="verticalLabelPosition=bottom;verticalAlign=top;html=1;shape=mxgraph.basic.heart;strokeColor=#FF3333;fillColor=#FF0000;" vertex="1" parent="1">
          <mxGeometry x="40" y="480" width="100" height="100" as="geometry" />
        </mxCell>
        <mxCell id="NIX0h1YYxs0aXMcXGmLt-104" value="" style="verticalLabelPosition=bottom;verticalAlign=top;html=1;shape=mxgraph.basic.heart;strokeColor=#FF3333;fillColor=#FF0000;" vertex="1" parent="1">
          <mxGeometry x="710" y="300" width="100" height="100" as="geometry" />
        </mxCell>
        <mxCell id="NIX0h1YYxs0aXMcXGmLt-105" value="" style="verticalLabelPosition=bottom;verticalAlign=top;html=1;shape=mxgraph.basic.heart;strokeColor=#FF3333;fillColor=#FF0000;" vertex="1" parent="1">
          <mxGeometry x="575" y="130" width="100" height="100" as="geometry" />
        </mxCell>
        <mxCell id="NIX0h1YYxs0aXMcXGmLt-106" value="" style="verticalLabelPosition=bottom;verticalAlign=top;html=1;shape=mxgraph.basic.heart;strokeColor=#FF3333;fillColor=#FF0000;" vertex="1" parent="1">
          <mxGeometry x="640" y="730" width="100" height="100" as="geometry" />
        </mxCell>
        <mxCell id="NIX0h1YYxs0aXMcXGmLt-107" value="" style="verticalLabelPosition=bottom;verticalAlign=top;html=1;shape=mxgraph.basic.heart;strokeColor=#FF3333;fillColor=#FF0000;" vertex="1" parent="1">
          <mxGeometry x="65" y="330" width="100" height="100" as="geometry" />
        </mxCell>
        <mxCell id="NIX0h1YYxs0aXMcXGmLt-108" value="" style="verticalLabelPosition=bottom;verticalAlign=top;html=1;shape=mxgraph.basic.heart;strokeColor=#FF3333;fillColor=#FF0000;" vertex="1" parent="1">
          <mxGeometry x="505" y="790" width="100" height="100" as="geometry" />
        </mxCell>
        <mxCell id="NIX0h1YYxs0aXMcXGmLt-109" value="" style="verticalLabelPosition=bottom;verticalAlign=top;html=1;shape=mxgraph.basic.heart;strokeColor=#FF3333;fillColor=#FF0000;" vertex="1" parent="1">
          <mxGeometry x="40" y="350" width="100" height="100" as="geometry" />
        </mxCell>
        <mxCell id="NIX0h1YYxs0aXMcXGmLt-110" value="" style="verticalLabelPosition=bottom;verticalAlign=top;html=1;shape=mxgraph.basic.heart;strokeColor=#FF3333;fillColor=#FF0000;" vertex="1" parent="1">
          <mxGeometry x="390" y="200" width="100" height="100" as="geometry" />
        </mxCell>
        <mxCell id="NIX0h1YYxs0aXMcXGmLt-111" value="" style="verticalLabelPosition=bottom;verticalAlign=top;html=1;shape=mxgraph.basic.heart;strokeColor=#FF3333;fillColor=#FF0000;" vertex="1" parent="1">
          <mxGeometry x="590" y="760" width="100" height="100" as="geometry" />
        </mxCell>
        <mxCell id="NIX0h1YYxs0aXMcXGmLt-113" value="" style="verticalLabelPosition=bottom;verticalAlign=top;html=1;shape=mxgraph.basic.heart;strokeColor=#FF3333;fillColor=#FF0000;" vertex="1" parent="1">
          <mxGeometry x="80" y="710" width="100" height="100" as="geometry" />
        </mxCell>
        <mxCell id="NIX0h1YYxs0aXMcXGmLt-114" value="" style="verticalLabelPosition=bottom;verticalAlign=top;html=1;shape=mxgraph.basic.heart;strokeColor=#FF3333;fillColor=#FF0000;" vertex="1" parent="1">
          <mxGeometry x="90" y="670" width="100" height="100" as="geometry" />
        </mxCell>
        <mxCell id="NIX0h1YYxs0aXMcXGmLt-118" value="" style="verticalLabelPosition=bottom;verticalAlign=top;html=1;shape=mxgraph.basic.heart;strokeColor=#FF3333;fillColor=#FF0000;" vertex="1" parent="1">
          <mxGeometry x="110" y="790" width="100" height="100" as="geometry" />
        </mxCell>
        <mxCell id="NIX0h1YYxs0aXMcXGmLt-120" value="" style="verticalLabelPosition=bottom;verticalAlign=top;html=1;shape=mxgraph.basic.heart;strokeColor=#FF3333;fillColor=#FF0000;" vertex="1" parent="1">
          <mxGeometry x="550" y="810" width="100" height="100" as="geometry" />
        </mxCell>
      </root>
    </mxGraphModel>
  </diagram>
</mxfile>
